<mxfile host="app.diagrams.net" modified="2022-02-20T18:51:21.845Z" agent="5.0 (X11; Linux x86_64) AppleWebKit/537.36 (KHTML, like Gecko) Chrome/98.0.4758.80 Safari/537.36" etag="yNxANHNF6PDruXEXXikY" version="16.6.1" type="github">
  <diagram id="C5RBs43oDa-KdzZeNtuy" name="Page-1">
    <mxGraphModel dx="1422" dy="743" grid="1" gridSize="10" guides="1" tooltips="1" connect="1" arrows="1" fold="1" page="1" pageScale="1" pageWidth="827" pageHeight="1169" math="0" shadow="0">
      <root>
        <mxCell id="WIyWlLk6GJQsqaUBKTNV-0" />
        <mxCell id="WIyWlLk6GJQsqaUBKTNV-1" parent="WIyWlLk6GJQsqaUBKTNV-0" />
        <mxCell id="MdBb3V78UucFdfMjdwVg-0" value="Mikrotik 192.168.88.0/24" style="ellipse;whiteSpace=wrap;html=1;" vertex="1" parent="WIyWlLk6GJQsqaUBKTNV-1">
          <mxGeometry x="150" y="200" width="120" height="80" as="geometry" />
        </mxCell>
        <mxCell id="MdBb3V78UucFdfMjdwVg-1" value="HP 192.168.88.238" style="whiteSpace=wrap;html=1;aspect=fixed;" vertex="1" parent="WIyWlLk6GJQsqaUBKTNV-1">
          <mxGeometry x="160" y="350" width="80" height="80" as="geometry" />
        </mxCell>
        <mxCell id="MdBb3V78UucFdfMjdwVg-2" value="Android 192.168.88.10" style="whiteSpace=wrap;html=1;aspect=fixed;" vertex="1" parent="WIyWlLk6GJQsqaUBKTNV-1">
          <mxGeometry x="290" y="350" width="80" height="80" as="geometry" />
        </mxCell>
        <mxCell id="MdBb3V78UucFdfMjdwVg-3" value="PS4 192.168.88.237" style="whiteSpace=wrap;html=1;aspect=fixed;" vertex="1" parent="WIyWlLk6GJQsqaUBKTNV-1">
          <mxGeometry x="400" y="350" width="80" height="80" as="geometry" />
        </mxCell>
        <mxCell id="MdBb3V78UucFdfMjdwVg-4" value="original 192.168.88.239" style="whiteSpace=wrap;html=1;aspect=fixed;" vertex="1" parent="WIyWlLk6GJQsqaUBKTNV-1">
          <mxGeometry x="390" y="170" width="80" height="80" as="geometry" />
        </mxCell>
        <mxCell id="MdBb3V78UucFdfMjdwVg-6" value="" style="endArrow=classic;html=1;rounded=0;entryX=0;entryY=0.5;entryDx=0;entryDy=0;" edge="1" parent="WIyWlLk6GJQsqaUBKTNV-1" target="MdBb3V78UucFdfMjdwVg-4">
          <mxGeometry relative="1" as="geometry">
            <mxPoint x="270" y="239.5" as="sourcePoint" />
            <mxPoint x="370" y="239.5" as="targetPoint" />
          </mxGeometry>
        </mxCell>
        <mxCell id="MdBb3V78UucFdfMjdwVg-7" value="Label" style="edgeLabel;resizable=0;html=1;align=center;verticalAlign=middle;" connectable="0" vertex="1" parent="MdBb3V78UucFdfMjdwVg-6">
          <mxGeometry relative="1" as="geometry" />
        </mxCell>
        <mxCell id="MdBb3V78UucFdfMjdwVg-10" value="" style="endArrow=classic;html=1;rounded=0;entryX=0.5;entryY=0;entryDx=0;entryDy=0;exitX=0.933;exitY=0.763;exitDx=0;exitDy=0;exitPerimeter=0;" edge="1" parent="WIyWlLk6GJQsqaUBKTNV-1" source="MdBb3V78UucFdfMjdwVg-0" target="MdBb3V78UucFdfMjdwVg-3">
          <mxGeometry relative="1" as="geometry">
            <mxPoint x="290" y="259.5" as="sourcePoint" />
            <mxPoint x="410" y="230" as="targetPoint" />
          </mxGeometry>
        </mxCell>
        <mxCell id="MdBb3V78UucFdfMjdwVg-11" value="Label" style="edgeLabel;resizable=0;html=1;align=center;verticalAlign=middle;" connectable="0" vertex="1" parent="MdBb3V78UucFdfMjdwVg-10">
          <mxGeometry relative="1" as="geometry" />
        </mxCell>
        <mxCell id="MdBb3V78UucFdfMjdwVg-12" value="" style="endArrow=classic;html=1;rounded=0;entryX=0.5;entryY=0;entryDx=0;entryDy=0;exitX=0.6;exitY=1.025;exitDx=0;exitDy=0;exitPerimeter=0;" edge="1" parent="WIyWlLk6GJQsqaUBKTNV-1" source="MdBb3V78UucFdfMjdwVg-0" target="MdBb3V78UucFdfMjdwVg-2">
          <mxGeometry relative="1" as="geometry">
            <mxPoint x="300" y="269.5" as="sourcePoint" />
            <mxPoint x="420" y="240" as="targetPoint" />
          </mxGeometry>
        </mxCell>
        <mxCell id="MdBb3V78UucFdfMjdwVg-13" value="Label" style="edgeLabel;resizable=0;html=1;align=center;verticalAlign=middle;" connectable="0" vertex="1" parent="MdBb3V78UucFdfMjdwVg-12">
          <mxGeometry relative="1" as="geometry" />
        </mxCell>
        <mxCell id="MdBb3V78UucFdfMjdwVg-14" value="" style="endArrow=classic;html=1;rounded=0;entryX=0.5;entryY=0;entryDx=0;entryDy=0;exitX=0.5;exitY=1;exitDx=0;exitDy=0;" edge="1" parent="WIyWlLk6GJQsqaUBKTNV-1" source="MdBb3V78UucFdfMjdwVg-0" target="MdBb3V78UucFdfMjdwVg-1">
          <mxGeometry relative="1" as="geometry">
            <mxPoint x="310" y="279.5" as="sourcePoint" />
            <mxPoint x="430" y="250" as="targetPoint" />
          </mxGeometry>
        </mxCell>
        <mxCell id="MdBb3V78UucFdfMjdwVg-15" value="Label" style="edgeLabel;resizable=0;html=1;align=center;verticalAlign=middle;" connectable="0" vertex="1" parent="MdBb3V78UucFdfMjdwVg-14">
          <mxGeometry relative="1" as="geometry" />
        </mxCell>
      </root>
    </mxGraphModel>
  </diagram>
</mxfile>
